<svg xmlns="http://www.w3.org/2000/svg" class="svg-standalone-icon" width="100%" viewBox="65.00000000000003 150.08364428662728 169.83271142674548 169.83271142674548"><g data-paper-data="{&quot;isIcon&quot;:&quot;true&quot;,&quot;iconType&quot;:&quot;icon&quot;,&quot;rawIconId&quot;:&quot;2192212&quot;,&quot;selectedEffects&quot;:{&quot;container&quot;:&quot;&quot;,&quot;transformation&quot;:&quot;&quot;,&quot;pattern&quot;:&quot;&quot;},&quot;isDetailed&quot;:true,&quot;iconStyle&quot;:&quot;standalone&quot;,&quot;bounds&quot;:{&quot;x&quot;:65.00000000000003,&quot;y&quot;:150.08364428662728,&quot;width&quot;:169.83271142674548,&quot;height&quot;:169.83271142674548},&quot;fillRule&quot;:&quot;evenodd&quot;,&quot;suitableAsStandaloneIcon&quot;:true}" fill="#bec6c4" fill-rule="evenodd"><path d="M149.91636,150.08364c-46.82288,0 -84.91636,38.09348 -84.91636,84.91636c0,46.82288 38.09348,84.91636 84.91636,84.91636c46.82288,0 84.91636,-38.09348 84.91636,-84.91636c0,-46.82288 -38.09348,-84.91636 -84.91636,-84.91636zM149.91636,314.25526c-43.70173,0 -79.25526,-35.55354 -79.25526,-79.25526c0,-43.70173 35.55354,-79.25526 79.25526,-79.25526c43.70173,0 79.25526,35.55354 79.25526,79.25526c0,43.70173 -35.55354,79.25526 -79.25526,79.25526zM78.20921,235c0,-40.58058 33.01359,-73.59418 73.59418,-73.59418c40.58058,0 73.59418,33.01359 73.59418,73.59418c0,40.58058 -33.01359,73.59418 -73.59418,73.59418c-40.58058,0 -73.59418,-33.01359 -73.59418,-73.59418zM83.8703,235c0,37.45943 30.47365,67.93308 67.93308,67.93308c37.45943,0 67.93308,-30.47365 67.93308,-67.93308c0,-37.45943 -30.47365,-67.93308 -67.93308,-67.93308c-37.45943,0 -67.93308,30.47365 -67.93308,67.93308zM148.02933,172.72801c-34.3364,0 -62.27199,27.9356 -62.27199,62.27199c0,34.3364 27.9356,62.27199 62.27199,62.27199c34.3364,0 62.27199,-27.9356 62.27199,-62.27199c0,-34.3364 -27.9356,-62.27199 -62.27199,-62.27199zM148.02933,291.61091c-31.21525,0 -56.61091,-25.39565 -56.61091,-56.61091c0,-31.21525 25.39565,-56.61091 56.61091,-56.61091c31.21525,0 56.61091,25.39565 56.61091,56.61091c0,31.21525 -25.39565,56.61091 -56.61091,56.61091zM100.85357,235c0,-28.0941 22.85571,-50.94981 50.94981,-50.94981c28.0941,0 50.94981,22.85571 50.94981,50.94981c0,28.0941 -22.85571,50.94981 -50.94981,50.94981c-28.0941,0 -50.94981,-22.85571 -50.94981,-50.94981zM106.51466,235c0,24.97107 20.31766,45.28872 45.28872,45.28872c24.97107,0 45.28872,-20.31766 45.28872,-45.28872c0,-24.97107 -20.31766,-45.28872 -45.28872,-45.28872c-24.97107,0 -45.28872,20.31766 -45.28872,45.28872zM148.02933,195.37236c-21.85181,0 -39.62764,17.77582 -39.62764,39.62764c0,21.85181 17.77582,39.62764 39.62764,39.62764c21.85181,0 39.62764,-17.77582 39.62764,-39.62764c0,-21.85181 -17.77582,-39.62764 -39.62764,-39.62764zM148.02933,268.96654c-18.72878,0 -33.96654,-15.23776 -33.96654,-33.96654c0,-18.72878 15.23776,-33.96654 33.96654,-33.96654c18.72878,0 33.96654,15.23776 33.96654,33.96654c0,18.72878 -15.23776,33.96654 -33.96654,33.96654zM123.49793,235c0,-15.60763 12.69782,-28.30545 28.30545,-28.30545c15.60763,0 28.30545,12.69782 28.30545,28.30545c0,15.60763 -12.69782,28.30545 -28.30545,28.30545c-15.60763,0 -28.30545,-12.69782 -28.30545,-28.30545zM129.15903,235c0,12.48647 10.15788,22.64436 22.64436,22.64436c12.48647,0 22.64436,-10.15788 22.64436,-22.64436c0,-12.48647 -10.15788,-22.64436 -22.64436,-22.64436c-12.48647,0 -22.64436,10.15788 -22.64436,22.64436zM148.02933,218.01673c-9.36345,0 -16.98327,7.61982 -16.98327,16.98327c0,9.36345 7.61982,16.98327 16.98327,16.98327c9.36345,0 16.98327,-7.61982 16.98327,-16.98327c0,-9.36345 -7.61982,-16.98327 -16.98327,-16.98327zM148.02933,246.32218c-6.24418,0 -11.32218,-5.078 -11.32218,-11.32218c0,-6.24418 5.078,-11.32218 11.32218,-11.32218c6.24418,0 11.32218,5.078 11.32218,11.32218c0,6.24418 -5.078,11.32218 -11.32218,11.32218zM157.46448,235c0,0.18543 -0.00906,0.37042 -0.02717,0.55498c-0.01824,0.18443 -0.04541,0.36759 -0.08152,0.5495c-0.03623,0.18178 -0.08126,0.36143 -0.13511,0.53894c-0.05385,0.17738 -0.11624,0.35168 -0.18719,0.5229c-0.07096,0.17134 -0.15008,0.33878 -0.23739,0.50233c-0.08743,0.16354 -0.18266,0.32237 -0.28569,0.47647c-0.10303,0.15423 -0.21336,0.30299 -0.33099,0.44629c-0.11763,0.14329 -0.24198,0.28048 -0.37306,0.41156c-0.13109,0.13109 -0.26828,0.25544 -0.41156,0.37306c-0.14329,0.11763 -0.29205,0.22795 -0.44629,0.33099c-0.15411,0.10303 -0.31293,0.19826 -0.47647,0.28569c-0.16354,0.0873 -0.33099,0.16644 -0.50233,0.23739c-0.17122,0.07096 -0.34552,0.13335 -0.5229,0.18719c-0.17751,0.05385 -0.35715,0.09888 -0.53894,0.13511c-0.18191,0.03611 -0.36508,0.06328 -0.5495,0.08152c-0.18455,0.01811 -0.36955,0.02717 -0.55498,0.02717c-0.18543,0 -0.37042,-0.00906 -0.55498,-0.02717c-0.18443,-0.01824 -0.36759,-0.04541 -0.5495,-0.08152c-0.18178,-0.03623 -0.36143,-0.08126 -0.53894,-0.13511c-0.17738,-0.05385 -0.35168,-0.11624 -0.5229,-0.18719c-0.17134,-0.07096 -0.33878,-0.15008 -0.50233,-0.23739c-0.16354,-0.08743 -0.32237,-0.18266 -0.47647,-0.28569c-0.15423,-0.10303 -0.30299,-0.21336 -0.44629,-0.33099c-0.14329,-0.11763 -0.28048,-0.24198 -0.41156,-0.37306c-0.13109,-0.13109 -0.25544,-0.26828 -0.37306,-0.41156c-0.11763,-0.14329 -0.22795,-0.29205 -0.33099,-0.44629c-0.10303,-0.15411 -0.19826,-0.31293 -0.28569,-0.47647c-0.0873,-0.16354 -0.16644,-0.33099 -0.23739,-0.50233c-0.07096,-0.17122 -0.13335,-0.34552 -0.18719,-0.5229c-0.05385,-0.17751 -0.09888,-0.35715 -0.13511,-0.53894c-0.03611,-0.18191 -0.06328,-0.36508 -0.08152,-0.5495c-0.01811,-0.18455 -0.02717,-0.36955 -0.02717,-0.55498c0,-0.18543 0.00906,-0.37042 0.02717,-0.55498c0.01824,-0.18443 0.04541,-0.36759 0.08152,-0.5495c0.03623,-0.18178 0.08126,-0.36143 0.13511,-0.53894c0.05385,-0.17738 0.11624,-0.35168 0.18719,-0.5229c0.07096,-0.17134 0.15008,-0.33878 0.23739,-0.50233c0.08743,-0.16354 0.18266,-0.32237 0.28569,-0.47647c0.10303,-0.15423 0.21336,-0.30299 0.33099,-0.44629c0.11763,-0.14329 0.24198,-0.28048 0.37306,-0.41156c0.13109,-0.13109 0.26828,-0.25544 0.41156,-0.37306c0.14329,-0.11763 0.29205,-0.22795 0.44629,-0.33099c0.15411,-0.10303 0.31293,-0.19826 0.47647,-0.28569c0.16354,-0.0873 0.33099,-0.16644 0.50233,-0.23739c0.17122,-0.07096 0.34552,-0.13335 0.5229,-0.18719c0.17751,-0.05385 0.35715,-0.09888 0.53894,-0.13511c0.18191,-0.03611 0.36508,-0.06328 0.5495,-0.08152c0.18455,-0.01811 0.36955,-0.02717 0.55498,-0.02717c0.18543,0 0.37042,0.00906 0.55498,0.02717c0.18443,0.01824 0.36759,0.04541 0.5495,0.08152c0.18178,0.03623 0.36143,0.08126 0.53894,0.13511c0.17738,0.05385 0.35168,0.11624 0.5229,0.18719c0.17134,0.07096 0.33878,0.15008 0.50233,0.23739c0.16354,0.08743 0.32237,0.18266 0.47647,0.28569c0.15423,0.10303 0.30299,0.21336 0.44629,0.33099c0.14329,0.11763 0.28048,0.24198 0.41156,0.37306c0.13109,0.13109 0.25544,0.26828 0.37306,0.41156c0.11763,0.14329 0.22795,0.29205 0.33099,0.44629c0.10303,0.15411 0.19826,0.31293 0.28569,0.47647c0.0873,0.16354 0.16644,0.33099 0.23739,0.50233c0.07096,0.17122 0.13335,0.34552 0.18719,0.5229c0.05385,0.17751 0.09888,0.35715 0.13511,0.53894c0.03611,0.18191 0.06328,0.36508 0.08152,0.5495c0.01811,0.18455 0.02717,0.36955 0.02717,0.55498z" data-paper-data="{&quot;isPathIcon&quot;:true}" style="fill: rgb(255, 255, 255);"/></g></svg>